HIERARCHY
ROOT Hips
{
	OFFSET 0.000000 71.427986 0.000000
	CHANNELS 6 Xposition Yposition Zposition Xrotation Yrotation Zrotation
	JOINT Pelvis
	{
		OFFSET 0.000000 0.000000 0.000000
		CHANNELS 3 Xrotation Yrotation Zrotation
		JOINT LeftUpLeg
		{
			OFFSET 6.797100 -2.508499 -1.318700
			CHANNELS 3 Xrotation Yrotation Zrotation
			JOINT LeftLeg
			{
				OFFSET 0.069008 -29.241863 0.690200
				CHANNELS 3 Xrotation Yrotation Zrotation
				JOINT LeftFoot
				{
					OFFSET -0.069008 -29.568123 -0.266800
					CHANNELS 3 Xrotation Yrotation Zrotation
					JOINT LeftToeBase
					{
						OFFSET 3.145500 -8.631000 16.059900
						CHANNELS 3 Xrotation Yrotation Zrotation
						End Site
						{
							OFFSET 0.000000 18.501587 0.000000
						}
					}
				}
			}
			JOINT Left_ShortSleeve
			{
				OFFSET 0.265923 -10.480953 1.153800
				CHANNELS 3 Xrotation Yrotation Zrotation
				End Site
				{
					OFFSET 1.725763 19.823879 0.000000
				}
			}
		}
		JOINT RightUpLeg
		{
			OFFSET -6.797100 -2.508499 -1.318700
			CHANNELS 3 Xrotation Yrotation Zrotation
			JOINT RightLeg
			{
				OFFSET -0.082453 -29.241932 0.688000
				CHANNELS 3 Xrotation Yrotation Zrotation
				JOINT RightFoot
				{
					OFFSET 0.082453 -29.568058 -0.264600
					CHANNELS 3 Xrotation Yrotation Zrotation
					JOINT RightToeBase
					{
						OFFSET -3.115300 -8.682800 16.113400
						CHANNELS 3 Xrotation Yrotation Zrotation
						End Site
						{
							OFFSET 0.000000 18.567114 0.000000
						}
					}
				}
			}
			JOINT Right_ShortSleeve
			{
				OFFSET -0.265923 -10.480953 1.153800
				CHANNELS 3 Xrotation Yrotation Zrotation
				End Site
				{
					OFFSET -1.725766 19.823910 0.000000
				}
			}
		}
	}
	JOINT Spine
	{
		OFFSET 0.000000 13.368103 0.470500
		CHANNELS 3 Xrotation Yrotation Zrotation
		JOINT Spine1
		{
			OFFSET 0.147000 13.837402 0.538800
			CHANNELS 3 Xrotation Yrotation Zrotation
			JOINT Spine2
			{
				OFFSET 0.168000 16.242897 -1.435500
				CHANNELS 3 Xrotation Yrotation Zrotation
				JOINT Neck
				{
					OFFSET 0.217200 18.631500 -1.679100
					CHANNELS 3 Xrotation Yrotation Zrotation
					JOINT Head
					{
						OFFSET 0.000000 6.599396 1.385900
						CHANNELS 3 Xrotation Yrotation Zrotation
						JOINT Hat
						{
							OFFSET -0.532200 27.220596 -10.096100
							CHANNELS 3 Xrotation Yrotation Zrotation
							End Site
							{
								OFFSET 0.000000 22.029861 0.000000
							}
						}
						JOINT HairD
						{
							OFFSET -10.777400 17.437393 -1.325900
							CHANNELS 3 Xrotation Yrotation Zrotation
							JOINT HairD1
							{
								OFFSET -3.290299 -11.051193 1.062200
								CHANNELS 3 Xrotation Yrotation Zrotation
								End Site
								{
									OFFSET 0.000000 11.579437 0.000000
								}
							}
						}
						JOINT HairB
						{
							OFFSET -10.777400 17.437393 1.467900
							CHANNELS 3 Xrotation Yrotation Zrotation
							JOINT HairB1
							{
								OFFSET -1.561200 -12.956299 3.590200
								CHANNELS 3 Xrotation Yrotation Zrotation
								End Site
								{
									OFFSET 0.000000 13.534866 0.000000
								}
							}
						}
						JOINT HairA
						{
							OFFSET 9.713100 17.437393 1.467900
							CHANNELS 3 Xrotation Yrotation Zrotation
							JOINT HairA1
							{
								OFFSET 1.561200 -12.956299 3.590200
								CHANNELS 3 Xrotation Yrotation Zrotation
								End Site
								{
									OFFSET 0.000000 13.534866 0.000000
								}
							}
						}
						JOINT HairC
						{
							OFFSET 9.713100 17.437393 -1.325900
							CHANNELS 3 Xrotation Yrotation Zrotation
							JOINT HairC1
							{
								OFFSET 3.290300 -11.051193 1.062200
								CHANNELS 3 Xrotation Yrotation Zrotation
								End Site
								{
									OFFSET 0.000000 11.579437 0.000000
								}
							}
						}
					}
				}
				JOINT LeftShoulder
				{
					OFFSET 5.101800 15.108002 -2.763700
					CHANNELS 3 Xrotation Yrotation Zrotation
					JOINT LeftArm
					{
						OFFSET 9.825497 2.506317 -1.597400
						CHANNELS 3 Xrotation Yrotation Zrotation
						JOINT LeftForeArm
						{
							OFFSET 21.966244 0.000000 0.000000
							CHANNELS 3 Xrotation Yrotation Zrotation
							JOINT LeftHand
							{
								OFFSET 33.879036 0.000000 0.000000
								CHANNELS 3 Xrotation Yrotation Zrotation
								JOINT LeftHandThumb1
								{
									OFFSET 6.715286 -2.359680 3.363841
									CHANNELS 3 Xrotation Yrotation Zrotation
									JOINT LeftHandThumb2
									{
										OFFSET 2.507072 -1.447464 1.447461
										CHANNELS 3 Xrotation Yrotation Zrotation
										JOINT LeftHandThumb3
										{
											OFFSET 2.898338 -1.673355 1.673357
											CHANNELS 3 Xrotation Yrotation Zrotation
											End Site
											{
												OFFSET -0.295959 3.727692 -0.131651
											}
										}
									}
								}
								JOINT LeftHandIndex1
								{
									OFFSET 14.190811 -0.254547 3.840278
									CHANNELS 3 Xrotation Yrotation Zrotation
									JOINT LeftHandIndex2
									{
										OFFSET 3.551727 0.000000 -0.000000
										CHANNELS 3 Xrotation Yrotation Zrotation
										JOINT LeftHandIndex3
										{
											OFFSET 2.894196 0.000000 0.000000
											CHANNELS 3 Xrotation Yrotation Zrotation
											End Site
											{
												OFFSET -1.000603 2.690872 0.366626
											}
										}
									}
								}
								JOINT LeftHandMiddle1
								{
									OFFSET 13.776489 0.000000 0.000000
									CHANNELS 3 Xrotation Yrotation Zrotation
									JOINT LeftHandMiddle2
									{
										OFFSET 3.438232 0.000000 0.000000
										CHANNELS 3 Xrotation Yrotation Zrotation
										JOINT LeftHandMiddle3
										{
											OFFSET 3.691551 0.000000 0.000000
											CHANNELS 3 Xrotation Yrotation Zrotation
											End Site
											{
												OFFSET -1.082298 3.499527 0.457670
											}
										}
									}
								}
								JOINT LeftHandRing1
								{
									OFFSET 13.966164 -0.268127 -3.067488
									CHANNELS 3 Xrotation Yrotation Zrotation
									JOINT LeftHandRing2
									{
										OFFSET 3.162567 0.000000 0.000000
										CHANNELS 3 Xrotation Yrotation Zrotation
										JOINT LeftHandRing3
										{
											OFFSET 3.324348 0.000000 0.000000
											CHANNELS 3 Xrotation Yrotation Zrotation
											End Site
											{
												OFFSET -0.861900 3.184998 0.405154
											}
										}
									}
								}
								JOINT LeftHandPinky1
								{
									OFFSET 13.131393 -0.168503 -5.746925
									CHANNELS 3 Xrotation Yrotation Zrotation
									JOINT LeftHandPinky2
									{
										OFFSET 2.849182 0.000000 0.000000
										CHANNELS 3 Xrotation Yrotation Zrotation
										JOINT LeftHandPinky3
										{
											OFFSET 2.805038 0.000000 0.000000
											CHANNELS 3 Xrotation Yrotation Zrotation
											End Site
											{
												OFFSET -0.882500 2.642609 0.325652
											}
										}
									}
								}
							}
							JOINT Left_Sleeve
							{
								OFFSET 6.592125 -0.646545 0.805568
								CHANNELS 3 Xrotation Yrotation Zrotation
								End Site
								{
									OFFSET -0.000179 20.275787 -0.000000
								}
							}
						}
					}
				}
				JOINT RightShoulder
				{
					OFFSET -5.731700 15.108002 -2.763700
					CHANNELS 3 Xrotation Yrotation Zrotation
					JOINT RightArm
					{
						OFFSET -9.825497 2.506317 -1.597400
						CHANNELS 3 Xrotation Yrotation Zrotation
						JOINT RightForeArm
						{
							OFFSET -21.966242 0.000000 0.000000
							CHANNELS 3 Xrotation Yrotation Zrotation
							JOINT RightHand
							{
								OFFSET -33.879032 0.000000 0.000000
								CHANNELS 3 Xrotation Yrotation Zrotation
								JOINT RightHandThumb1
								{
									OFFSET -6.715286 -2.359680 3.363841
									CHANNELS 3 Xrotation Yrotation Zrotation
									JOINT RightHandThumb2
									{
										OFFSET -2.507072 -1.447464 1.447461
										CHANNELS 3 Xrotation Yrotation Zrotation
										JOINT RightHandThumb3
										{
											OFFSET -2.898338 -1.673355 1.673357
											CHANNELS 3 Xrotation Yrotation Zrotation
											End Site
											{
												OFFSET 0.295959 3.727692 -0.131651
											}
										}
									}
								}
								JOINT RightHandIndex1
								{
									OFFSET -14.190811 -0.254547 3.840278
									CHANNELS 3 Xrotation Yrotation Zrotation
									JOINT RightHandIndex2
									{
										OFFSET -3.551727 0.000000 -0.000000
										CHANNELS 3 Xrotation Yrotation Zrotation
										JOINT RightHandIndex3
										{
											OFFSET -2.894196 0.000000 0.000000
											CHANNELS 3 Xrotation Yrotation Zrotation
											End Site
											{
												OFFSET 1.000603 2.690872 0.366626
											}
										}
									}
								}
								JOINT RightHandMiddle1
								{
									OFFSET -13.776489 0.000000 0.000000
									CHANNELS 3 Xrotation Yrotation Zrotation
									JOINT RightHandMiddle2
									{
										OFFSET -3.438232 0.000000 0.000000
										CHANNELS 3 Xrotation Yrotation Zrotation
										JOINT RightHandMiddle3
										{
											OFFSET -3.691551 0.000000 0.000000
											CHANNELS 3 Xrotation Yrotation Zrotation
											End Site
											{
												OFFSET 1.082298 3.499527 0.457670
											}
										}
									}
								}
								JOINT RightHandRing1
								{
									OFFSET -13.966164 -0.268127 -3.067488
									CHANNELS 3 Xrotation Yrotation Zrotation
									JOINT RightHandRing2
									{
										OFFSET -3.162567 0.000000 0.000000
										CHANNELS 3 Xrotation Yrotation Zrotation
										JOINT RightHandRing3
										{
											OFFSET -3.324348 0.000000 0.000000
											CHANNELS 3 Xrotation Yrotation Zrotation
											End Site
											{
												OFFSET 0.861900 3.184998 0.405154
											}
										}
									}
								}
								JOINT RightHandPinky1
								{
									OFFSET -13.131393 -0.168503 -5.746925
									CHANNELS 3 Xrotation Yrotation Zrotation
									JOINT RightHandPinky2
									{
										OFFSET -2.849182 0.000000 0.000000
										CHANNELS 3 Xrotation Yrotation Zrotation
										JOINT RightHandPinky3
										{
											OFFSET -2.805038 0.000000 0.000000
											CHANNELS 3 Xrotation Yrotation Zrotation
											End Site
											{
												OFFSET 0.882500 2.642609 0.325652
											}
										}
									}
								}
							}
							JOINT Right_Sleeve
							{
								OFFSET -6.592125 -0.646545 0.805568
								CHANNELS 3 Xrotation Yrotation Zrotation
								End Site
								{
									OFFSET 0.000179 20.275787 -0.000000
								}
							}
						}
					}
				}
				JOINT Bind_Right_JacketString
				{
					OFFSET -3.534800 11.969597 7.200700
					CHANNELS 3 Xrotation Yrotation Zrotation
					JOINT Bind_Right_JacketString1
					{
						OFFSET -0.319900 -6.102600 2.794100
						CHANNELS 3 Xrotation Yrotation Zrotation
						End Site
						{
							OFFSET 0.000000 6.719452 0.000000
						}
					}
				}
				JOINT Bind_Left_JacketString
				{
					OFFSET 2.904800 11.969597 7.200700
					CHANNELS 3 Xrotation Yrotation Zrotation
					JOINT Bind_Left_JacketString1
					{
						OFFSET 0.364800 -5.904503 3.186800
						CHANNELS 3 Xrotation Yrotation Zrotation
						End Site
						{
							OFFSET 0.000000 6.719513 0.000000
						}
					}
				}
				JOINT HairE
				{
					OFFSET 5.915200 17.612701 -11.592200
					CHANNELS 3 Xrotation Yrotation Zrotation
					JOINT HairE1
					{
						OFFSET 0.289200 -7.171898 -1.284500
						CHANNELS 3 Xrotation Yrotation Zrotation
						End Site
						{
							OFFSET 0.000000 7.291756 0.000000
						}
					}
				}
				JOINT HairF
				{
					OFFSET -0.864800 17.612701 -11.592200
					CHANNELS 3 Xrotation Yrotation Zrotation
					JOINT HairF1
					{
						OFFSET 0.000000 -14.087097 -2.127501
						CHANNELS 3 Xrotation Yrotation Zrotation
						End Site
						{
							OFFSET 0.000000 14.246841 0.000000
						}
					}
				}
				JOINT HairG
				{
					OFFSET -8.087700 17.612701 -11.592200
					CHANNELS 3 Xrotation Yrotation Zrotation
					JOINT HairG1
					{
						OFFSET -0.293600 -6.081398 -0.910100
						CHANNELS 3 Xrotation Yrotation Zrotation
						End Site
						{
							OFFSET 0.000000 6.156120 0.000000
						}
					}
				}
			}
		}
	}
	JOINT Pouch
	{
		OFFSET 0.000000 4.394501 10.847300
		CHANNELS 3 Xrotation Yrotation Zrotation
		End Site
		{
			OFFSET 0.000000 21.880577 0.000000
		}
	}
	JOINT Bag
	{
		OFFSET -13.229000 4.813004 -0.593300
		CHANNELS 3 Xrotation Yrotation Zrotation
		End Site
		{
			OFFSET 0.000000 21.880577 0.000000
		}
	}
	JOINT OccupyGuyFacialAnim_Joint
	{
		OFFSET 1.000000 -70.206398 -1.655000
		CHANNELS 3 Xrotation Yrotation Zrotation
		End Site
		{
			OFFSET 0.000000 21.880577 0.000000
		}
	}
}
MOTION
Frames: 4
Frame Time: 0.033333
0.234740 70.486717 3.490542 -7.688809 -15.595151 -5.203598 0.000001 -0.000000 0.000000 -6.774664 16.163195 12.144248 24.096267 10.018089 2.163147 -8.949403 2.045634 -8.254974 0.000000 0.000001 0.000000 0.000001 -0.000000 -0.000000 3.895423 -10.674297 0.882805 14.744770 0.311970 -1.349673 -10.686943 -0.929182 2.856200 0.000000 -0.000000 0.000000 -0.000000 0.000001 -0.000000 2.976219 0.964736 2.979230 0.497298 -0.632772 2.301504 0.469801 -0.624018 2.292892 2.470072 -3.727831 5.196950 -11.247315 -17.769237 9.073336 0.000001 -0.000005 0.000001 0.000001 -0.000005 0.000001 0.000001 -0.000005 0.000001 0.000001 -0.000005 -0.000000 0.000003 -0.000004 -0.000002 0.000001 -0.000005 -0.000000 0.000003 -0.000004 -0.000002 0.000001 -0.000005 0.000001 0.000001 -0.000005 0.000001 1.190400 -16.548307 -11.301210 12.702992 -21.919861 -68.446815 0.000009 -6.397203 0.000003 -35.215656 0.689998 -6.451992 -0.996051 1.639692 4.256244 11.748507 25.209093 17.122311 0.000003 0.000001 -0.000003 0.694326 -1.598817 0.711243 0.232962 1.637204 -16.195666 -0.000002 -0.000001 -0.000000 0.114992 3.219480 -12.100132 0.258569 1.722911 -17.069121 -0.000001 0.000001 -0.000001 -0.376431 2.479758 -22.727077 0.547805 2.475472 -24.952727 -0.000001 0.000000 -0.000003 0.123270 4.725229 -28.550983 0.265530 1.745389 -17.298885 -0.000003 0.000000 -0.000001 -0.000002 -0.000001 0.000001 0.813760 12.730890 17.032202 7.768540 13.181874 56.348822 -0.000003 3.200078 0.000027 -23.189445 1.417895 4.770221 -1.905861 0.409148 -4.300131 12.823119 -30.034541 -16.102441 0.000001 -0.000001 -0.000000 1.463659 -0.864598 10.441530 0.334756 -1.735409 21.834481 -0.000001 0.000001 0.000000 -0.005032 -2.816161 17.223200 0.285198 -1.606275 20.135054 0.000000 -0.000001 -0.000001 -0.154519 -2.846813 24.475575 0.391477 -1.870721 23.637089 0.000000 -0.000002 -0.000002 0.935579 -5.252497 29.465361 0.263280 -1.545200 19.337903 -0.000000 -0.000000 0.000000 0.000001 0.000000 -0.000001 0.000000 0.000001 0.000000 0.000000 -0.000000 -0.000000 0.000000 0.000001 -0.000000 0.000000 0.000001 -0.000000 0.000000 0.000001 0.000000 0.000000 -0.000000 -0.000000 0.000000 0.000001 -0.000000 0.000000 0.000001 -0.000000 0.000000 0.000001 0.000000 0.000000 -0.000000 -0.000000 0.000001 -0.000000 0.000000 0.000001 -0.000000 0.000000 0.000001 -0.000000 0.000000 
0.230804 70.547867 3.298484 -7.223410 -14.844870 -5.072011 0.000000 -0.000001 0.000000 -6.981209 15.984656 11.980122 23.003681 10.003412 2.360259 -8.389211 1.484102 -8.196844 -0.000000 -0.000001 0.000000 -0.000001 -0.000000 -0.000000 3.875927 -10.686663 1.155914 13.867974 0.316361 -1.347791 -10.155432 -1.674357 2.809882 -0.000000 0.000000 -0.000000 0.000000 0.000002 -0.000000 3.000681 0.998042 2.923610 0.539759 -0.576583 2.201045 0.512059 -0.566401 2.193170 2.483316 -3.423424 5.004241 -11.645483 -16.355617 8.961899 0.000001 -0.000000 -0.000000 0.000001 -0.000000 -0.000000 0.000001 -0.000000 0.000000 0.000001 -0.000000 -0.000000 0.000003 0.000001 0.000001 0.000001 -0.000000 -0.000000 0.000003 0.000001 0.000001 0.000001 -0.000000 -0.000000 0.000001 -0.000000 -0.000000 1.167183 -16.442746 -11.437503 12.812276 -21.590382 -68.122674 -0.000006 -5.815958 -0.000009 -34.923082 1.011002 -6.408288 -0.903673 1.788321 4.364965 11.779887 25.272815 17.103209 -0.000001 0.000001 -0.000001 0.724228 -1.338424 -0.549571 0.234405 1.642170 -16.246044 -0.000006 0.000001 -0.000002 0.130640 3.315987 -12.970376 0.259275 1.725214 -17.092709 -0.000001 0.000000 -0.000001 -0.366398 2.507891 -22.765360 0.547055 2.473857 -24.935265 -0.000001 0.000001 -0.000002 0.174719 4.790964 -28.710680 0.265725 1.746027 -17.305348 -0.000001 -0.000002 0.000001 0.000004 -0.000000 0.000001 0.823962 12.802237 16.964781 8.051704 13.749958 56.588776 -0.000001 3.488104 0.000002 -22.828533 1.230125 5.032593 -1.875213 0.330985 -4.273707 12.841498 -30.068637 -16.097805 0.000000 -0.000000 0.000004 1.385355 -0.609207 10.511408 0.334653 -1.735150 21.831019 -0.000001 -0.000001 -0.000002 -0.030496 -2.714147 16.881875 0.278919 -1.589049 19.909814 0.000001 0.000000 0.000003 -0.129711 -2.864473 23.870347 0.377888 -1.839365 23.217288 0.000000 -0.000001 0.000001 0.907536 -5.210777 28.980260 0.258422 -1.531289 19.156903 -0.000000 0.000000 0.000002 0.000001 0.000000 -0.000001 -0.000000 0.000001 0.000000 -0.000000 0.000003 -0.000000 -0.000000 0.000001 0.000000 -0.000000 0.000001 0.000000 -0.000000 0.000001 0.000000 -0.000000 0.000003 -0.000000 -0.000000 0.000001 0.000000 -0.000000 0.000001 0.000000 -0.000000 0.000001 0.000000 -0.000000 0.000003 -0.000000 0.000000 -0.000001 0.000000 0.000000 -0.000001 0.000000 0.000000 -0.000001 0.000000 
0.235197 70.605118 3.101987 -6.725943 -14.034256 -4.931657 -0.000000 0.000001 0.000000 -7.256462 15.822067 11.812068 21.948610 9.786235 2.546274 -7.816443 1.039309 -8.091176 0.000000 0.000001 0.000000 -0.000001 -0.000000 -0.000000 3.823719 -10.700769 1.472088 12.960075 -0.509247 -1.440022 -9.608438 -1.675124 2.940521 -0.000000 -0.000000 -0.000000 -0.000001 0.000001 -0.000000 3.026235 1.034682 2.870166 0.585670 -0.513921 2.111448 0.558026 -0.502403 2.104342 2.504327 -3.115901 4.797063 -12.175538 -14.884020 8.685037 -0.000001 -0.000002 0.000002 -0.000001 -0.000002 0.000002 -0.000001 -0.000002 0.000002 -0.000001 -0.000002 0.000002 0.000001 0.000002 -0.000000 -0.000001 -0.000002 0.000002 0.000001 0.000002 -0.000000 -0.000001 -0.000002 0.000002 -0.000001 -0.000002 0.000002 1.137884 -16.307288 -11.611999 12.537177 -20.971958 -67.952282 0.000001 -4.970670 -0.000003 -34.611454 1.321252 -6.473707 -0.841730 1.885740 4.460096 11.799988 25.313516 17.090940 0.000001 0.000001 -0.000001 0.757442 -1.105380 -1.707376 0.235511 1.645963 -16.284651 -0.000001 0.000000 -0.000002 0.141973 3.386796 -13.786844 0.259969 1.727440 -17.115471 -0.000000 -0.000000 -0.000001 -0.367501 2.510673 -22.817468 0.547387 2.474553 -24.942977 -0.000001 0.000001 -0.000004 0.195138 4.821015 -28.845269 0.265821 1.746358 -17.308775 0.000001 0.000000 0.000003 -0.000002 0.000001 -0.000000 0.837649 12.821010 16.886400 8.318232 14.406585 56.785892 -0.000005 3.818752 -0.000003 -22.597998 1.120805 5.186207 -1.853010 0.277283 -4.267413 12.821149 -30.030764 -16.103088 -0.000000 0.000000 0.000004 1.315668 -0.396329 10.474734 0.333413 -1.732061 21.790202 -0.000000 0.000001 0.000001 -0.042483 -2.653923 16.542612 0.273071 -1.572815 19.697832 0.000001 0.000001 0.000001 -0.121132 -2.856857 23.425945 0.370430 -1.821898 22.983880 0.000000 -0.000001 0.000001 0.888307 -5.187368 28.588395 0.254301 -1.519377 19.002049 -0.000001 0.000001 -0.000005 0.000000 -0.000000 -0.000000 0.000000 -0.000000 -0.000000 0.000000 -0.000000 0.000000 0.000000 -0.000000 -0.000000 0.000000 -0.000000 -0.000000 0.000000 -0.000000 -0.000000 0.000000 -0.000000 0.000000 0.000000 -0.000000 -0.000000 0.000000 -0.000000 -0.000000 0.000000 -0.000000 -0.000000 0.000000 -0.000000 0.000000 -0.000000 0.000001 0.000000 -0.000000 0.000001 0.000000 -0.000000 0.000001 0.000000 
0.247934 70.658371 2.902496 -6.209546 -13.172989 -4.777812 0.000000 0.000000 0.000000 -7.586003 15.661252 11.624484 20.941664 9.125225 2.727701 -7.214596 0.991379 -7.915544 0.000000 0.000000 0.000000 0.000000 0.000000 -0.000000 3.740005 -10.707085 1.769078 12.056462 -1.386611 -1.545027 -9.061212 -1.675448 3.071070 0.000000 0.000002 -0.000000 0.000000 -0.000002 -0.000000 3.053736 1.072203 2.823034 0.635186 -0.450034 2.035860 0.607693 -0.437339 2.029541 2.532456 -2.800552 4.545775 -12.802636 -13.327848 8.209208 -0.000001 -0.000000 -0.000000 -0.000001 -0.000000 -0.000000 -0.000001 -0.000000 0.000000 -0.000001 -0.000000 -0.000000 0.000000 -0.000001 -0.000000 -0.000001 -0.000000 -0.000000 0.000000 -0.000001 -0.000000 -0.000001 -0.000000 -0.000000 -0.000001 -0.000000 -0.000000 1.108365 -16.214855 -11.797049 12.052784 -20.248688 -67.886418 -0.000002 -4.047346 -0.000016 -34.360981 1.573377 -6.608208 -0.843123 1.874422 4.526769 11.798530 25.310610 17.091835 0.000002 -0.000002 -0.000005 0.761226 -0.947921 -2.672218 0.236447 1.649163 -16.317283 0.000003 0.000001 -0.000000 0.139674 3.397237 -14.455194 0.260600 1.729514 -17.136535 -0.000001 -0.000001 0.000001 -0.382748 2.478207 -22.856277 0.548013 2.475914 -24.957549 0.000001 0.000004 -0.000000 0.169924 4.796347 -28.887479 0.265770 1.746180 -17.307004 -0.000002 -0.000003 0.000002 0.000001 -0.000000 0.000001 0.857162 12.835459 16.776043 8.545976 15.092894 56.956944 -0.000003 4.175755 -0.000000 -22.453082 0.974050 5.328753 -1.832852 0.229637 -4.266724 12.791723 -29.976006 -16.110622 0.000000 -0.000001 -0.000001 1.248559 -0.213594 10.441328 0.332370 -1.729449 21.755633 0.000000 0.000001 0.000004 -0.046136 -2.623221 16.247538 0.267923 -1.558353 19.509211 0.000001 0.000001 0.000001 -0.117503 -2.846075 23.111337 0.366995 -1.813776 22.875506 0.000001 -0.000001 0.000003 0.875709 -5.176610 28.285082 0.250691 -1.508867 18.865553 -0.000000 0.000002 -0.000003 0.000003 -0.000000 -0.000000 -0.000000 0.000000 -0.000000 -0.000000 0.000000 -0.000000 -0.000000 0.000000 -0.000000 -0.000000 0.000000 -0.000000 -0.000000 0.000000 -0.000000 -0.000000 0.000000 -0.000000 -0.000000 0.000000 -0.000000 -0.000000 0.000000 -0.000000 -0.000000 0.000000 -0.000000 -0.000000 0.000000 -0.000000 0.000000 0.000000 0.000000 0.000000 0.000000 0.000000 0.000000 0.000000 0.000000 
